<?xml version="1.0" encoding="UTF-8" standalone="no"?><!DOCTYPE svg PUBLIC "-//W3C//DTD SVG 1.1//EN" "http://www.w3.org/Graphics/SVG/1.1/DTD/svg11.dtd"><svg width="100%" height="100%" viewBox="0 0 1485 1478" version="1.1" xmlns="http://www.w3.org/2000/svg" xmlns:xlink="http://www.w3.org/1999/xlink" xml:space="preserve" xmlns:serif="http://www.serif.com/" style="fill-rule:evenodd;clip-rule:evenodd;stroke-linejoin:round;stroke-miterlimit:2;"><g><g><path d="M741.821,733.226c0,0 -47.742,-157.812 33.263,-282.308c80.991,-124.446 188.662,-171.721 291.025,-181.596c102.395,-9.896 221.929,34.775 289.166,104.913c155.313,162.17 127.117,368.695 127.117,368.695c0,0 1.046,-240.833 -226.771,-345.795c-55.642,-25.592 -220.692,-69.325 -365.242,39.704c-145.85,110.033 -148.558,296.387 -148.558,296.387Z" style="fill:#7ec242;fill-rule:nonzero;"/><path d="M741.821,733.226c0,0 -125.954,-106.371 -125.85,-254.896c0.154,-148.47 64.688,-246.754 145.171,-310.779c80.487,-64.1 205.071,-91.737 299.637,-69.516c218.559,51.408 307.38,239.966 307.38,239.966c0,0 -130.296,-202.5 -378.492,-166.508c-60.538,8.833 -222.813,62.079 -284.671,232.237c-62.412,171.755 36.825,329.496 36.825,329.496Z" style="fill:#005cac;fill-rule:nonzero;"/><path d="M741.821,733.226c0,0 -163.596,-20.608 -244.375,-145.225c-80.712,-124.6 -80.137,-242.171 -47.517,-339.741c32.605,-97.584 122.03,-188.625 213.455,-221.492c211.337,-75.938 388.508,33.821 388.508,33.821c0,0 -219.6,-98.871 -408.146,66.562c-45.971,40.4 -153.037,173.384 -112.237,349.809c41.179,178.02 210.312,256.266 210.312,256.266Z" style="fill:#005cac;fill-rule:nonzero;"/><path d="M741.821,733.226c0,0 -148.404,71.788 -284.029,11.284c-135.554,-60.538 -199.096,-159.425 -224.913,-259.059c-25.8,-99.566 -0.362,-224.637 58.438,-302c135.833,-178.783 344.204,-183.229 344.204,-183.229c0,0 -237.987,36.667 -306.025,278.075c-16.583,58.942 -33.942,228.821 96.354,354.55c131.525,126.871 315.971,100.379 315.971,100.379Z" style="fill:#005cac;fill-rule:nonzero;"/><path d="M741.821,733.226c0,0 -85.367,141.025 -232.05,164.15c-146.7,23.054 -253.817,-25.296 -329.704,-94.758c-75.883,-69.458 -122.692,-188.229 -115.554,-285.121c16.612,-223.942 188.958,-341.129 188.958,-341.129c0,0 -179.654,160.367 -105.262,399.896c18.245,58.437 96.2,210.383 273.941,244.846c179.392,34.775 319.671,-87.884 319.671,-87.884Z" style="fill:#005cac;fill-rule:nonzero;"/><path d="M741.821,733.226c0,0 5.225,164.759 -105.208,264.063c-110.471,99.221 -226.667,117.033 -328.109,100.071c-101.491,-16.913 -205.4,-91.025 -252.187,-176.2c-108.071,-196.821 -27.358,-388.975 -27.358,-388.975c0,0 -63.3,232.325 129.562,392.675c47.067,39.112 195.246,124.079 363.075,56.179c169.358,-68.559 220.225,-247.813 220.225,-247.813Z" style="fill:#005cac;fill-rule:nonzero;"/><path d="M741.821,733.226c0,0 94.117,135.296 55.554,278.767c-38.608,143.354 -126.354,221.583 -220.658,262.642c-94.342,41.075 -221.825,35.52 -307.467,-10.417c-197.775,-106.233 -234.771,-311.375 -234.771,-311.375c0,0 73.417,229.358 322.517,258.771c60.779,7.187 231.317,-2.259 335.104,-150.646c104.688,-149.721 49.721,-327.742 49.721,-327.742Z" style="fill:#e2e3e4;fill-rule:nonzero;"/><path d="M741.821,733.226c0,0 152.604,62.221 198.421,203.525c45.692,141.25 14.737,254.617 -42.017,340.45c-56.771,85.817 -166.7,150.609 -263.537,158.717c-223.771,18.646 -366.496,-133.246 -366.496,-133.246c0,0 186.496,152.358 411.442,41.371c54.879,-27.133 192.741,-127.883 198.975,-308.838c6.304,-182.62 -136.788,-301.979 -136.788,-301.979Z" style="fill:#e2e3e4;fill-rule:nonzero;"/><path d="M741.821,733.226c0,0 161.892,-30.954 277.238,62.604c115.245,93.58 151.045,205.555 150.175,308.438c-0.834,102.883 -57.78,217.121 -134.567,276.617c-177.479,137.5 -379.929,87.879 -379.929,87.879c0,0 239.358,26.2 367.571,-189.375c31.283,-52.671 91.979,-212.254 -1.338,-367.413c-94.183,-156.579 -279.15,-178.75 -279.15,-178.75Z" style="fill:#e2e3e4;fill-rule:nonzero;"/><path d="M741.821,733.226c0,0 118.925,-114.129 266.65,-98.487c147.588,15.675 238.575,90.104 293.871,176.854c55.329,86.754 69.792,213.546 37.829,305.279c-73.975,212.013 -270.796,280.642 -270.796,280.642c0,0 215.034,-108.4 205.138,-359.025c-2.429,-61.2 -38.421,-228.125 -201.163,-307.417c-164.254,-80.017 -331.529,2.154 -331.529,2.154Z" style="fill:#e2e3e4;fill-rule:nonzero;"/><path d="M741.821,733.226c0,0 37.571,-160.483 169.983,-227.846c132.342,-67.241 249.167,-54.358 342.813,-11.7c93.646,42.6 174.825,141.059 197.967,235.396c53.437,218.125 -74.255,382.813 -74.255,382.813c0,0 121.305,-207.967 -23.487,-412.813c-35.4,-49.946 -156.492,-170.396 -336.179,-148.208c-181.338,22.342 -276.842,182.358 -276.842,182.358Z" style="fill:#e2e3e4;fill-rule:nonzero;"/></g></g></svg>